<svg width="23" height="19" viewBox="0 0 23 19" fill="none" xmlns="http://www.w3.org/2000/svg">
<path d="M22.5139 6.91172C22.6814 6.76641 22.9307 6.90235 22.9307 7.13204V16.718C22.9307 17.9602 22.0068 18.968 20.8682 18.968H2.99316C1.85449 18.968 0.930664 17.9602 0.930664 16.718V7.13672C0.930664 6.90235 1.17559 6.7711 1.34746 6.91641C2.30996 7.73204 3.58613 8.76797 7.96895 12.2414C8.87559 12.9633 10.4053 14.482 11.9307 14.4727C13.4646 14.4867 15.0244 12.9352 15.8967 12.2414C20.2795 8.76797 21.5514 7.72735 22.5139 6.91172ZM11.9307 12.968C12.9275 12.9867 14.3627 11.5992 15.0846 11.0274C20.7865 6.51329 21.2205 6.11954 22.5354 4.99454C22.7846 4.7836 22.9307 4.45547 22.9307 4.1086V3.21797C22.9307 1.97578 22.0068 0.967972 20.8682 0.967972H2.99316C1.85449 0.967972 0.930664 1.97578 0.930664 3.21797V4.1086C0.930664 4.45547 1.07676 4.77891 1.32598 4.99454C2.64082 6.11485 3.07481 6.51329 8.77676 11.0274C9.49863 11.5992 10.9338 12.9867 11.9307 12.968Z" fill="#2A2B2A"/>
</svg>
