<svg width="22" height="25" viewBox="0 0 22 25" fill="none" xmlns="http://www.w3.org/2000/svg">
<path d="M21.7178 12.6002C21.7178 19.022 16.9464 24.2252 11.0615 24.2252C5.17665 24.2252 0.405273 19.022 0.405273 12.6002C0.405273 6.18224 5.17665 0.97522 11.0615 0.97522C16.9464 0.97522 21.7178 6.18224 21.7178 12.6002ZM11.0615 14.944C9.9699 14.944 9.08496 15.9094 9.08496 17.1002C9.08496 18.2911 9.9699 19.2565 11.0615 19.2565C12.1531 19.2565 13.0381 18.2911 13.0381 17.1002C13.0381 15.9094 12.1531 14.944 11.0615 14.944ZM9.18495 7.19338L9.50369 13.5684C9.5186 13.8667 9.7447 14.1002 10.0185 14.1002H12.1045C12.3783 14.1002 12.6044 13.8667 12.6194 13.5684L12.9381 7.19338C12.9542 6.87116 12.719 6.60022 12.4232 6.60022H9.69976C9.40396 6.60022 9.16884 6.87116 9.18495 7.19338V7.19338Z" fill="#2A2B2A"/>
</svg>
